<?xml version="1.0" encoding="UTF-8" standalone="no"?>
<!DOCTYPE svg PUBLIC "-//W3C//DTD SVG 1.1//EN"
 "http://www.w3.org/Graphics/SVG/1.1/DTD/svg11.dtd">
<!-- Generated by graphviz version 13.0.1 (0)
 -->
<!-- Title: dependencies Pages: 1 -->
<svg width="1130pt" height="497pt"
 viewBox="0.00 0.00 1130.00 497.00" xmlns="http://www.w3.org/2000/svg" xmlns:xlink="http://www.w3.org/1999/xlink">
<g id="graph0" class="graph" transform="scale(1 1) rotate(0) translate(4 492.5)">
<title>dependencies</title>
<polygon fill="white" stroke="none" points="-4,4 -4,-492.5 1126.06,-492.5 1126.06,4 -4,4"/>
<g id="clust1" class="cluster">
<title>cluster_</title>
<polygon fill="#eeeeee" stroke="#eeeeee" points="8,-64 8,-480.5 913,-480.5 913,-64 8,-64"/>
</g>
<g id="clust2" class="cluster">
<title>cluster____formatters</title>
<polygon fill="#dddddd" stroke="#dddddd" points="116,-208 116,-356.5 358,-356.5 358,-208 116,-208"/>
<text xml:space="preserve" text-anchor="middle" x="237" y="-339.2" font-family="Times,serif" font-size="14.00">formatters</text>
</g>
<g id="clust3" class="cluster">
<title>cluster____parsers</title>
<polygon fill="#dddddd" stroke="#dddddd" points="366,-280 366,-356.5 598,-356.5 598,-280 366,-280"/>
<text xml:space="preserve" text-anchor="middle" x="482" y="-339.2" font-family="Times,serif" font-size="14.00">parsers</text>
</g>
<g id="clust4" class="cluster">
<title>cluster____filters</title>
<polygon fill="#dddddd" stroke="#dddddd" points="606,-280 606,-356.5 786,-356.5 786,-280 606,-280"/>
<text xml:space="preserve" text-anchor="middle" x="696" y="-339.2" font-family="Times,serif" font-size="14.00">filters</text>
</g>
<!-- ::formatters::dot_formatter -->
<g id="node1" class="node">
<title>::formatters::dot_formatter</title>
<ellipse fill="#86c2dc" stroke="black" cx="186" cy="-306" rx="62.1" ry="18"/>
<text xml:space="preserve" text-anchor="middle" x="186" y="-300.95" font-family="Times,serif" font-size="14.00">dot_formatter</text>
</g>
<!-- ::formatters::colors -->
<g id="node3" class="node">
<title>::formatters::colors</title>
<ellipse fill="#86c2dc" stroke="black" cx="251" cy="-234" rx="33.44" ry="18"/>
<text xml:space="preserve" text-anchor="middle" x="251" y="-228.95" font-family="Times,serif" font-size="14.00">colors</text>
</g>
<!-- ::formatters::dot_formatter&#45;&gt;::formatters::colors -->
<g id="edge13" class="edge">
<title>::formatters::dot_formatter&#45;&gt;::formatters::colors</title>
<path fill="none" stroke="black" d="M201.4,-288.41C209.65,-279.53 219.95,-268.44 229.02,-258.67"/>
<polygon fill="black" stroke="black" points="231.33,-261.33 235.57,-251.62 226.2,-256.57 231.33,-261.33"/>
</g>
<!-- ::formatter -->
<g id="node14" class="node">
<title>::formatter</title>
<ellipse fill="#e3f38b" stroke="black" cx="62" cy="-234" rx="45.72" ry="18"/>
<text xml:space="preserve" text-anchor="middle" x="62" y="-228.95" font-family="Times,serif" font-size="14.00">formatter</text>
</g>
<!-- ::formatters::dot_formatter&#45;&gt;::formatter -->
<g id="edge14" class="edge">
<title>::formatters::dot_formatter&#45;&gt;::formatter</title>
<path fill="none" stroke="black" d="M158.48,-289.46C140.46,-279.29 116.73,-265.9 97.32,-254.94"/>
<polygon fill="black" stroke="black" points="99.08,-251.91 88.65,-250.04 95.64,-258.01 99.08,-251.91"/>
</g>
<!-- ::formatters::__init__ -->
<g id="node2" class="node">
<title>::formatters::__init__</title>
<ellipse fill="#86c2dc" stroke="black" cx="308" cy="-306" rx="41.63" ry="18"/>
<text xml:space="preserve" text-anchor="middle" x="308" y="-300.95" font-family="Times,serif" font-size="14.00">__init__</text>
</g>
<!-- ::pathlib::path -->
<g id="node18" class="node">
<title>::pathlib::path</title>
<ellipse fill="none" stroke="black" cx="1058" cy="-162" rx="62.61" ry="18"/>
<text xml:space="preserve" text-anchor="middle" x="1058" y="-156.95" font-family="Times,serif" font-size="14.00">::pathlib::path</text>
</g>
<!-- ::formatters::colors&#45;&gt;::pathlib::path -->
<g id="edge15" class="edge">
<title>::formatters::colors&#45;&gt;::pathlib::path</title>
<path fill="none" stroke="black" d="M268.39,-218.39C274.25,-214.27 281.08,-210.29 288,-208 420.84,-164.07 777.56,-191.49 917,-180 941.29,-178 967.83,-175.01 991.28,-172.09"/>
<polygon fill="black" stroke="black" points="991.53,-175.59 1001.01,-170.86 990.65,-168.64 991.53,-175.59"/>
</g>
<!-- ::parsers::__init__ -->
<g id="node4" class="node">
<title>::parsers::__init__</title>
<ellipse fill="#b797e7" stroke="black" cx="416" cy="-306" rx="41.63" ry="18"/>
<text xml:space="preserve" text-anchor="middle" x="416" y="-300.95" font-family="Times,serif" font-size="14.00">__init__</text>
</g>
<!-- ::parsers::mojo_parser -->
<g id="node5" class="node">
<title>::parsers::mojo_parser</title>
<ellipse fill="#b797e7" stroke="black" cx="533" cy="-306" rx="57.49" ry="18"/>
<text xml:space="preserve" text-anchor="middle" x="533" y="-300.95" font-family="Times,serif" font-size="14.00">mojo_parser</text>
</g>
<!-- ::parser -->
<g id="node15" class="node">
<title>::parser</title>
<ellipse fill="#e3f38b" stroke="black" cx="708" cy="-234" rx="33.44" ry="18"/>
<text xml:space="preserve" text-anchor="middle" x="708" y="-228.95" font-family="Times,serif" font-size="14.00">parser</text>
</g>
<!-- ::parsers::mojo_parser&#45;&gt;::parser -->
<g id="edge23" class="edge">
<title>::parsers::mojo_parser&#45;&gt;::parser</title>
<path fill="none" stroke="black" d="M567.57,-291.17C597.47,-279.21 640.57,-261.97 671.12,-249.75"/>
<polygon fill="black" stroke="black" points="672.37,-253.02 680.36,-246.06 669.77,-246.52 672.37,-253.02"/>
</g>
<!-- ::filters::__init__ -->
<g id="node6" class="node">
<title>::filters::__init__</title>
<ellipse fill="#a8acb2" stroke="black" cx="656" cy="-306" rx="41.63" ry="18"/>
<text xml:space="preserve" text-anchor="middle" x="656" y="-300.95" font-family="Times,serif" font-size="14.00">__init__</text>
</g>
<!-- ::filters::depth -->
<g id="node7" class="node">
<title>::filters::depth</title>
<ellipse fill="#a8acb2" stroke="black" cx="747" cy="-306" rx="31.39" ry="18"/>
<text xml:space="preserve" text-anchor="middle" x="747" y="-300.95" font-family="Times,serif" font-size="14.00">depth</text>
</g>
<!-- ::filter -->
<g id="node16" class="node">
<title>::filter</title>
<ellipse fill="#e3f38b" stroke="black" cx="799" cy="-234" rx="28.83" ry="18"/>
<text xml:space="preserve" text-anchor="middle" x="799" y="-228.95" font-family="Times,serif" font-size="14.00">filter</text>
</g>
<!-- ::filters::depth&#45;&gt;::filter -->
<g id="edge26" class="edge">
<title>::filters::depth&#45;&gt;::filter</title>
<path fill="none" stroke="black" d="M758.8,-289.12C765.18,-280.52 773.21,-269.72 780.41,-260.02"/>
<polygon fill="black" stroke="black" points="783.19,-262.15 786.34,-252.04 777.57,-257.98 783.19,-262.15"/>
</g>
<!-- ::main -->
<g id="node8" class="node">
<title>::main</title>
<ellipse fill="#e3f38b" stroke="black" cx="811" cy="-454.5" rx="29.86" ry="18"/>
<text xml:space="preserve" text-anchor="middle" x="811" y="-449.45" font-family="Times,serif" font-size="14.00">main</text>
</g>
<!-- ::app_builder -->
<g id="node9" class="node">
<title>::app_builder</title>
<ellipse fill="#e3f38b" stroke="black" cx="747" cy="-382.5" rx="54.93" ry="18"/>
<text xml:space="preserve" text-anchor="middle" x="747" y="-377.45" font-family="Times,serif" font-size="14.00">app_builder</text>
</g>
<!-- ::main&#45;&gt;::app_builder -->
<g id="edge1" class="edge">
<title>::main&#45;&gt;::app_builder</title>
<path fill="none" stroke="black" d="M797.11,-438.31C789.15,-429.6 778.96,-418.46 769.85,-408.49"/>
<polygon fill="black" stroke="black" points="772.55,-406.26 763.22,-401.24 767.39,-410.99 772.55,-406.26"/>
</g>
<!-- ::sys -->
<g id="node17" class="node">
<title>::sys</title>
<ellipse fill="none" stroke="black" cx="949" cy="-382.5" rx="27.81" ry="18"/>
<text xml:space="preserve" text-anchor="middle" x="949" y="-377.45" font-family="Times,serif" font-size="14.00">::sys</text>
</g>
<!-- ::main&#45;&gt;::sys -->
<g id="edge2" class="edge">
<title>::main&#45;&gt;::sys</title>
<path fill="none" stroke="black" d="M833.41,-442.49C854.93,-431.88 888.29,-415.3 917,-400.5 917.34,-400.33 917.67,-400.15 918.01,-399.98"/>
<polygon fill="black" stroke="black" points="919.46,-403.17 926.7,-395.43 916.21,-396.97 919.46,-403.17"/>
</g>
<!-- ::app_builder&#45;&gt;::formatters::dot_formatter -->
<g id="edge4" class="edge">
<title>::app_builder&#45;&gt;::formatters::dot_formatter</title>
<path fill="none" stroke="black" d="M692.25,-380.41C573.01,-377.78 297.24,-370.28 257,-356.5 240.76,-350.94 224.87,-340.48 212.25,-330.6"/>
<polygon fill="black" stroke="black" points="214.82,-328.18 204.86,-324.55 210.38,-333.59 214.82,-328.18"/>
</g>
<!-- ::app_builder&#45;&gt;::parsers::mojo_parser -->
<g id="edge5" class="edge">
<title>::app_builder&#45;&gt;::parsers::mojo_parser</title>
<path fill="none" stroke="black" d="M693.38,-378.05C665.31,-374.83 630.86,-368.59 602,-356.5 586.83,-350.15 571.78,-339.93 559.62,-330.42"/>
<polygon fill="black" stroke="black" points="562.08,-327.91 552.11,-324.32 557.67,-333.35 562.08,-327.91"/>
</g>
<!-- ::app_builder&#45;&gt;::filters::depth -->
<g id="edge6" class="edge">
<title>::app_builder&#45;&gt;::filters::depth</title>
<path fill="none" stroke="black" d="M747,-364.22C747,-355.82 747,-345.49 747,-335.93"/>
<polygon fill="black" stroke="black" points="750.5,-335.96 747,-325.96 743.5,-335.96 750.5,-335.96"/>
</g>
<!-- ::files_reader -->
<g id="node10" class="node">
<title>::files_reader</title>
<ellipse fill="#e3f38b" stroke="black" cx="851" cy="-306" rx="54.42" ry="18"/>
<text xml:space="preserve" text-anchor="middle" x="851" y="-300.95" font-family="Times,serif" font-size="14.00">files_reader</text>
</g>
<!-- ::app_builder&#45;&gt;::files_reader -->
<g id="edge3" class="edge">
<title>::app_builder&#45;&gt;::files_reader</title>
<path fill="none" stroke="black" d="M774.23,-366.52C779.56,-363.36 785.03,-359.93 790,-356.5 801.46,-348.59 813.48,-339.12 823.79,-330.58"/>
<polygon fill="black" stroke="black" points="825.79,-333.48 831.2,-324.37 821.29,-328.12 825.79,-333.48"/>
</g>
<!-- ::dependencies_graph -->
<g id="node13" class="node">
<title>::dependencies_graph</title>
<ellipse fill="#e3f38b" stroke="black" cx="577" cy="-162" rx="86.15" ry="18"/>
<text xml:space="preserve" text-anchor="middle" x="577" y="-156.95" font-family="Times,serif" font-size="14.00">dependencies_graph</text>
</g>
<!-- ::files_reader&#45;&gt;::dependencies_graph -->
<g id="edge7" class="edge">
<title>::files_reader&#45;&gt;::dependencies_graph</title>
<path fill="none" stroke="black" d="M819.39,-290.88C810.05,-287.02 799.71,-283.06 790,-280 736.12,-263.01 715.48,-279.27 666,-252 637.75,-236.43 612.49,-209.22 596.16,-188.98"/>
<polygon fill="black" stroke="black" points="598.95,-186.86 590.03,-181.15 593.44,-191.18 598.95,-186.86"/>
</g>
<!-- ::files_reader&#45;&gt;::parser -->
<g id="edge8" class="edge">
<title>::files_reader&#45;&gt;::parser</title>
<path fill="none" stroke="black" d="M821.37,-290.5C798.28,-279.19 766.2,-263.49 742.05,-251.67"/>
<polygon fill="black" stroke="black" points="743.79,-248.62 733.27,-247.37 740.71,-254.91 743.79,-248.62"/>
</g>
<!-- ::files_reader&#45;&gt;::filter -->
<g id="edge9" class="edge">
<title>::files_reader&#45;&gt;::filter</title>
<path fill="none" stroke="black" d="M838.41,-288.05C832.17,-279.65 824.5,-269.32 817.59,-260.02"/>
<polygon fill="black" stroke="black" points="820.43,-257.98 811.66,-252.04 814.82,-262.16 820.43,-257.98"/>
</g>
<!-- ::files_reader&#45;&gt;::pathlib::path -->
<g id="edge10" class="edge">
<title>::files_reader&#45;&gt;::pathlib::path</title>
<path fill="none" stroke="black" d="M904.39,-302C973.46,-296.87 1088.04,-283.72 1114,-252 1126.39,-236.87 1122.45,-225.63 1114,-208 1109.78,-199.19 1102.89,-191.56 1095.37,-185.21"/>
<polygon fill="black" stroke="black" points="1097.65,-182.54 1087.58,-179.26 1093.41,-188.11 1097.65,-182.54"/>
</g>
<!-- ::os::os -->
<g id="node19" class="node">
<title>::os::os</title>
<ellipse fill="none" stroke="black" cx="959" cy="-234" rx="37.53" ry="18"/>
<text xml:space="preserve" text-anchor="middle" x="959" y="-228.95" font-family="Times,serif" font-size="14.00">::os::os</text>
</g>
<!-- ::files_reader&#45;&gt;::os::os -->
<g id="edge11" class="edge">
<title>::files_reader&#45;&gt;::os::os</title>
<path fill="none" stroke="black" d="M874.97,-289.46C890.55,-279.36 911.03,-266.09 927.87,-255.18"/>
<polygon fill="black" stroke="black" points="929.54,-258.26 936.03,-249.89 925.73,-252.39 929.54,-258.26"/>
</g>
<!-- ::os::path -->
<g id="node20" class="node">
<title>::os::path</title>
<ellipse fill="none" stroke="black" cx="1060" cy="-234" rx="45.21" ry="18"/>
<text xml:space="preserve" text-anchor="middle" x="1060" y="-228.95" font-family="Times,serif" font-size="14.00">::os::path</text>
</g>
<!-- ::files_reader&#45;&gt;::os::path -->
<g id="edge12" class="edge">
<title>::files_reader&#45;&gt;::os::path</title>
<path fill="none" stroke="black" d="M888.37,-292.49C923.95,-280.57 977.55,-262.62 1015.37,-249.95"/>
<polygon fill="black" stroke="black" points="1016.26,-253.34 1024.63,-246.84 1014.04,-246.7 1016.26,-253.34"/>
</g>
<!-- ::trie -->
<g id="node11" class="node">
<title>::trie</title>
<ellipse fill="#e3f38b" stroke="black" cx="571" cy="-90" rx="27" ry="18"/>
<text xml:space="preserve" text-anchor="middle" x="571" y="-84.95" font-family="Times,serif" font-size="14.00">trie</text>
</g>
<!-- ::collections -->
<g id="node21" class="node">
<title>::collections</title>
<ellipse fill="none" stroke="black" cx="785" cy="-18" rx="55.96" ry="18"/>
<text xml:space="preserve" text-anchor="middle" x="785" y="-12.95" font-family="Times,serif" font-size="14.00">::collections</text>
</g>
<!-- ::trie&#45;&gt;::collections -->
<g id="edge16" class="edge">
<title>::trie&#45;&gt;::collections</title>
<path fill="none" stroke="black" d="M587.81,-75.44C593.62,-71.28 600.34,-67.01 607,-64 654.14,-42.67 669.86,-48.77 720,-36 723.79,-35.04 727.7,-34.03 731.63,-33.02"/>
<polygon fill="black" stroke="black" points="732.45,-36.42 741.25,-30.52 730.69,-29.65 732.45,-36.42"/>
</g>
<!-- ::dependencies -->
<g id="node12" class="node">
<title>::dependencies</title>
<ellipse fill="#e3f38b" stroke="black" cx="677" cy="-90" rx="60.56" ry="18"/>
<text xml:space="preserve" text-anchor="middle" x="677" y="-84.95" font-family="Times,serif" font-size="14.00">dependencies</text>
</g>
<!-- ::hashlib::hasher -->
<g id="node22" class="node">
<title>::hashlib::hasher</title>
<ellipse fill="none" stroke="black" cx="639" cy="-18" rx="71.82" ry="18"/>
<text xml:space="preserve" text-anchor="middle" x="639" y="-12.95" font-family="Times,serif" font-size="14.00">::hashlib::hasher</text>
</g>
<!-- ::dependencies&#45;&gt;::hashlib::hasher -->
<g id="edge17" class="edge">
<title>::dependencies&#45;&gt;::hashlib::hasher</title>
<path fill="none" stroke="black" d="M667.8,-72.05C663.62,-64.35 658.56,-55.03 653.85,-46.36"/>
<polygon fill="black" stroke="black" points="656.95,-44.72 649.1,-37.61 650.8,-48.06 656.95,-44.72"/>
</g>
<!-- ::dependencies_graph&#45;&gt;::trie -->
<g id="edge18" class="edge">
<title>::dependencies_graph&#45;&gt;::trie</title>
<path fill="none" stroke="black" d="M575.52,-143.7C574.89,-136.41 574.15,-127.73 573.45,-119.54"/>
<polygon fill="black" stroke="black" points="576.94,-119.28 572.6,-109.61 569.96,-119.87 576.94,-119.28"/>
</g>
<!-- ::dependencies_graph&#45;&gt;::dependencies -->
<g id="edge19" class="edge">
<title>::dependencies_graph&#45;&gt;::dependencies</title>
<path fill="none" stroke="black" d="M600.95,-144.23C614.22,-134.94 630.89,-123.28 645.24,-113.23"/>
<polygon fill="black" stroke="black" points="646.85,-116.38 653.03,-107.78 642.83,-110.64 646.85,-116.38"/>
</g>
<!-- ::formatter&#45;&gt;::dependencies_graph -->
<g id="edge20" class="edge">
<title>::formatter&#45;&gt;::dependencies_graph</title>
<path fill="none" stroke="black" d="M86.7,-218.4C94.55,-214.39 103.42,-210.47 112,-208 179.42,-188.61 368.05,-174.88 483.3,-168.01"/>
<polygon fill="black" stroke="black" points="483.27,-171.52 493.05,-167.44 482.86,-164.53 483.27,-171.52"/>
</g>
<!-- ::parser&#45;&gt;::dependencies -->
<g id="edge21" class="edge">
<title>::parser&#45;&gt;::dependencies</title>
<path fill="none" stroke="black" d="M704.26,-215.87C699.02,-191.88 689.44,-147.99 683.15,-119.16"/>
<polygon fill="black" stroke="black" points="686.63,-118.69 681.08,-109.67 679.79,-120.18 686.63,-118.69"/>
</g>
<!-- ::parser&#45;&gt;::collections -->
<g id="edge22" class="edge">
<title>::parser&#45;&gt;::collections</title>
<path fill="none" stroke="black" d="M714.17,-215.85C727.43,-178.99 758.76,-91.92 774.94,-46.96"/>
<polygon fill="black" stroke="black" points="778.19,-48.25 778.29,-37.66 771.61,-45.88 778.19,-48.25"/>
</g>
<!-- ::filter&#45;&gt;::dependencies -->
<g id="edge24" class="edge">
<title>::filter&#45;&gt;::dependencies</title>
<path fill="none" stroke="black" d="M785.71,-217.53C764.78,-193.17 723.92,-145.61 698.69,-116.25"/>
<polygon fill="black" stroke="black" points="701.56,-114.21 692.39,-108.91 696.25,-118.78 701.56,-114.21"/>
</g>
<!-- ::filter&#45;&gt;::collections -->
<g id="edge25" class="edge">
<title>::filter&#45;&gt;::collections</title>
<path fill="none" stroke="black" d="M797.88,-215.85C795.48,-179.14 789.82,-92.66 786.87,-47.53"/>
<polygon fill="black" stroke="black" points="790.37,-47.49 786.23,-37.74 783.39,-47.95 790.37,-47.49"/>
</g>
</g>
</svg>
