<?xml version="1.0" encoding="UTF-8" standalone="no"?>
<!DOCTYPE svg PUBLIC "-//W3C//DTD SVG 1.1//EN"
 "http://www.w3.org/Graphics/SVG/1.1/DTD/svg11.dtd">
<!-- Generated by graphviz version 13.1.2 (0)
 -->
<!-- Title: dependencies Pages: 1 -->
<svg width="1061pt" height="497pt"
 viewBox="0.00 0.00 1061.00 497.00" xmlns="http://www.w3.org/2000/svg" xmlns:xlink="http://www.w3.org/1999/xlink">
<g id="graph0" class="graph" transform="scale(1 1) rotate(0) translate(4 492.5)">
<title>dependencies</title>
<polygon fill="white" stroke="none" points="-4,4 -4,-492.5 1057.21,-492.5 1057.21,4 -4,4"/>
<g id="clust1" class="cluster">
<title>cluster_</title>
<polygon fill="#eeeeee" stroke="#eeeeee" points="8,-64 8,-480.5 861,-480.5 861,-64 8,-64"/>
</g>
<g id="clust2" class="cluster">
<title>cluster____formatters</title>
<polygon fill="#dddddd" stroke="#dddddd" points="116,-208 116,-356.5 358,-356.5 358,-208 116,-208"/>
<text xml:space="preserve" text-anchor="middle" x="237" y="-339.2" font-family="Times,serif" font-size="14.00">formatters</text>
</g>
<g id="clust3" class="cluster">
<title>cluster____parsers</title>
<polygon fill="#dddddd" stroke="#dddddd" points="675,-280 675,-356.5 853,-356.5 853,-280 675,-280"/>
<text xml:space="preserve" text-anchor="middle" x="764" y="-339.2" font-family="Times,serif" font-size="14.00">parsers</text>
</g>
<g id="clust4" class="cluster">
<title>cluster____filters</title>
<polygon fill="#dddddd" stroke="#dddddd" points="366,-280 366,-356.5 546,-356.5 546,-280 366,-280"/>
<text xml:space="preserve" text-anchor="middle" x="456" y="-339.2" font-family="Times,serif" font-size="14.00">filters</text>
</g>
<!-- ::formatters::dot_formatter -->
<g id="node1" class="node">
<title>::formatters::dot_formatter</title>
<ellipse fill="#86c2dc" stroke="black" cx="186" cy="-306" rx="62.1" ry="18"/>
<text xml:space="preserve" text-anchor="middle" x="186" y="-300.95" font-family="Times,serif" font-size="14.00">dot_formatter</text>
</g>
<!-- ::formatters::colors -->
<g id="node3" class="node">
<title>::formatters::colors</title>
<ellipse fill="#86c2dc" stroke="black" cx="251" cy="-234" rx="33.44" ry="18"/>
<text xml:space="preserve" text-anchor="middle" x="251" y="-228.95" font-family="Times,serif" font-size="14.00">colors</text>
</g>
<!-- ::formatters::dot_formatter&#45;&gt;::formatters::colors -->
<g id="edge13" class="edge">
<title>::formatters::dot_formatter&#45;&gt;::formatters::colors</title>
<path fill="none" stroke="black" d="M201.4,-288.41C209.65,-279.53 219.95,-268.44 229.02,-258.67"/>
<polygon fill="black" stroke="black" points="231.33,-261.33 235.57,-251.62 226.2,-256.57 231.33,-261.33"/>
</g>
<!-- ::formatter -->
<g id="node13" class="node">
<title>::formatter</title>
<ellipse fill="#e3f38b" stroke="black" cx="62" cy="-234" rx="45.72" ry="18"/>
<text xml:space="preserve" text-anchor="middle" x="62" y="-228.95" font-family="Times,serif" font-size="14.00">formatter</text>
</g>
<!-- ::formatters::dot_formatter&#45;&gt;::formatter -->
<g id="edge14" class="edge">
<title>::formatters::dot_formatter&#45;&gt;::formatter</title>
<path fill="none" stroke="black" d="M158.48,-289.46C140.46,-279.29 116.73,-265.9 97.32,-254.94"/>
<polygon fill="black" stroke="black" points="99.08,-251.91 88.65,-250.04 95.64,-258.01 99.08,-251.91"/>
</g>
<!-- ::formatters::__init__ -->
<g id="node2" class="node">
<title>::formatters::__init__</title>
<ellipse fill="#86c2dc" stroke="black" cx="308" cy="-306" rx="41.63" ry="18"/>
<text xml:space="preserve" text-anchor="middle" x="308" y="-300.95" font-family="Times,serif" font-size="14.00">__init__</text>
</g>
<!-- ::pathlib::path -->
<g id="node18" class="node">
<title>::pathlib::path</title>
<ellipse fill="none" stroke="black" cx="932" cy="-162" rx="62.61" ry="18"/>
<text xml:space="preserve" text-anchor="middle" x="932" y="-156.95" font-family="Times,serif" font-size="14.00">::pathlib::path</text>
</g>
<!-- ::formatters::colors&#45;&gt;::pathlib::path -->
<g id="edge15" class="edge">
<title>::formatters::colors&#45;&gt;::pathlib::path</title>
<path fill="none" stroke="black" d="M268.39,-218.4C274.26,-214.28 281.09,-210.3 288,-208 409.8,-167.45 738.04,-198.99 865,-180 869.1,-179.39 873.31,-178.63 877.53,-177.78"/>
<polygon fill="black" stroke="black" points="878.15,-181.23 887.17,-175.67 876.65,-174.39 878.15,-181.23"/>
</g>
<!-- ::parsers::__init__ -->
<g id="node4" class="node">
<title>::parsers::__init__</title>
<ellipse fill="#b797e7" stroke="black" cx="725" cy="-306" rx="41.63" ry="18"/>
<text xml:space="preserve" text-anchor="middle" x="725" y="-300.95" font-family="Times,serif" font-size="14.00">__init__</text>
</g>
<!-- ::parsers::mojo -->
<g id="node5" class="node">
<title>::parsers::mojo</title>
<ellipse fill="#b797e7" stroke="black" cx="815" cy="-306" rx="30.37" ry="18"/>
<text xml:space="preserve" text-anchor="middle" x="815" y="-300.95" font-family="Times,serif" font-size="14.00">mojo</text>
</g>
<!-- ::parser -->
<g id="node14" class="node">
<title>::parser</title>
<ellipse fill="#e3f38b" stroke="black" cx="746" cy="-234" rx="33.44" ry="18"/>
<text xml:space="preserve" text-anchor="middle" x="746" y="-228.95" font-family="Times,serif" font-size="14.00">parser</text>
</g>
<!-- ::parsers::mojo&#45;&gt;::parser -->
<g id="edge22" class="edge">
<title>::parsers::mojo&#45;&gt;::parser</title>
<path fill="none" stroke="black" d="M800.37,-290.15C791.25,-280.91 779.33,-268.81 768.98,-258.31"/>
<polygon fill="black" stroke="black" points="771.66,-256.05 762.15,-251.39 766.68,-260.96 771.66,-256.05"/>
</g>
<!-- ::os::os -->
<g id="node19" class="node">
<title>::os::os</title>
<ellipse fill="none" stroke="black" cx="907" cy="-234" rx="37.53" ry="18"/>
<text xml:space="preserve" text-anchor="middle" x="907" y="-228.95" font-family="Times,serif" font-size="14.00">::os::os</text>
</g>
<!-- ::parsers::mojo&#45;&gt;::os::os -->
<g id="edge23" class="edge">
<title>::parsers::mojo&#45;&gt;::os::os</title>
<path fill="none" stroke="black" d="M833.18,-291.17C846.19,-281.27 863.95,-267.75 878.8,-256.46"/>
<polygon fill="black" stroke="black" points="880.55,-259.52 886.39,-250.68 876.31,-253.95 880.55,-259.52"/>
</g>
<!-- ::os::path -->
<g id="node20" class="node">
<title>::os::path</title>
<ellipse fill="none" stroke="black" cx="1008" cy="-234" rx="45.21" ry="18"/>
<text xml:space="preserve" text-anchor="middle" x="1008" y="-228.95" font-family="Times,serif" font-size="14.00">::os::path</text>
</g>
<!-- ::parsers::mojo&#45;&gt;::os::path -->
<g id="edge24" class="edge">
<title>::parsers::mojo&#45;&gt;::os::path</title>
<path fill="none" stroke="black" d="M840.63,-295.7C872.27,-284.23 926.55,-264.54 964.7,-250.7"/>
<polygon fill="black" stroke="black" points="965.86,-254.01 974.07,-247.31 963.48,-247.43 965.86,-254.01"/>
</g>
<!-- ::filters::__init__ -->
<g id="node6" class="node">
<title>::filters::__init__</title>
<ellipse fill="#a8acb2" stroke="black" cx="416" cy="-306" rx="41.63" ry="18"/>
<text xml:space="preserve" text-anchor="middle" x="416" y="-300.95" font-family="Times,serif" font-size="14.00">__init__</text>
</g>
<!-- ::filters::depth -->
<g id="node7" class="node">
<title>::filters::depth</title>
<ellipse fill="#a8acb2" stroke="black" cx="507" cy="-306" rx="31.39" ry="18"/>
<text xml:space="preserve" text-anchor="middle" x="507" y="-300.95" font-family="Times,serif" font-size="14.00">depth</text>
</g>
<!-- ::filter -->
<g id="node15" class="node">
<title>::filter</title>
<ellipse fill="#e3f38b" stroke="black" cx="622" cy="-234" rx="28.83" ry="18"/>
<text xml:space="preserve" text-anchor="middle" x="622" y="-228.95" font-family="Times,serif" font-size="14.00">filter</text>
</g>
<!-- ::filters::depth&#45;&gt;::filter -->
<g id="edge27" class="edge">
<title>::filters::depth&#45;&gt;::filter</title>
<path fill="none" stroke="black" d="M525.63,-291.13C530.85,-287.4 536.58,-283.45 542,-280 557.73,-270 575.8,-259.74 590.77,-251.55"/>
<polygon fill="black" stroke="black" points="592.12,-254.79 599.25,-246.95 588.79,-248.64 592.12,-254.79"/>
</g>
<!-- ::main -->
<g id="node8" class="node">
<title>::main</title>
<ellipse fill="#e3f38b" stroke="black" cx="717" cy="-454.5" rx="29.86" ry="18"/>
<text xml:space="preserve" text-anchor="middle" x="717" y="-449.45" font-family="Times,serif" font-size="14.00">main</text>
</g>
<!-- ::app_builder -->
<g id="node9" class="node">
<title>::app_builder</title>
<ellipse fill="#e3f38b" stroke="black" cx="611" cy="-382.5" rx="54.93" ry="18"/>
<text xml:space="preserve" text-anchor="middle" x="611" y="-377.45" font-family="Times,serif" font-size="14.00">app_builder</text>
</g>
<!-- ::main&#45;&gt;::app_builder -->
<g id="edge1" class="edge">
<title>::main&#45;&gt;::app_builder</title>
<path fill="none" stroke="black" d="M697.56,-440.66C682.63,-430.8 661.67,-416.96 644.11,-405.37"/>
<polygon fill="black" stroke="black" points="646.31,-402.62 636.03,-400.03 642.45,-408.46 646.31,-402.62"/>
</g>
<!-- ::sys -->
<g id="node17" class="node">
<title>::sys</title>
<ellipse fill="none" stroke="black" cx="897" cy="-382.5" rx="27.81" ry="18"/>
<text xml:space="preserve" text-anchor="middle" x="897" y="-377.45" font-family="Times,serif" font-size="14.00">::sys</text>
</g>
<!-- ::main&#45;&gt;::sys -->
<g id="edge2" class="edge">
<title>::main&#45;&gt;::sys</title>
<path fill="none" stroke="black" d="M743.11,-445.42C773.03,-435.86 823.31,-418.92 865,-400.5 865.47,-400.29 865.95,-400.08 866.43,-399.86"/>
<polygon fill="black" stroke="black" points="867.75,-403.11 875.2,-395.58 864.68,-396.82 867.75,-403.11"/>
</g>
<!-- ::app_builder&#45;&gt;::formatters::dot_formatter -->
<g id="edge4" class="edge">
<title>::app_builder&#45;&gt;::formatters::dot_formatter</title>
<path fill="none" stroke="black" d="M555.78,-381.17C470.37,-380.05 310.52,-375.41 257,-356.5 240.81,-350.78 224.93,-340.3 212.3,-330.46"/>
<polygon fill="black" stroke="black" points="214.87,-328.03 204.9,-324.43 210.45,-333.46 214.87,-328.03"/>
</g>
<!-- ::app_builder&#45;&gt;::parsers::mojo -->
<g id="edge5" class="edge">
<title>::app_builder&#45;&gt;::parsers::mojo</title>
<path fill="none" stroke="black" d="M664.43,-377.66C705.22,-373.95 757.47,-367.28 776,-356.5 785.72,-350.84 793.93,-341.75 800.26,-332.88"/>
<polygon fill="black" stroke="black" points="803.01,-335.08 805.56,-324.8 797.15,-331.25 803.01,-335.08"/>
</g>
<!-- ::app_builder&#45;&gt;::filters::depth -->
<g id="edge6" class="edge">
<title>::app_builder&#45;&gt;::filters::depth</title>
<path fill="none" stroke="black" d="M568.78,-370.79C559.4,-367.2 549.9,-362.53 542,-356.5 533.91,-350.33 526.94,-341.76 521.39,-333.48"/>
<polygon fill="black" stroke="black" points="524.39,-331.67 516.15,-325 518.43,-335.35 524.39,-331.67"/>
</g>
<!-- ::files_reader -->
<g id="node10" class="node">
<title>::files_reader</title>
<ellipse fill="#e3f38b" stroke="black" cx="611" cy="-306" rx="54.42" ry="18"/>
<text xml:space="preserve" text-anchor="middle" x="611" y="-300.95" font-family="Times,serif" font-size="14.00">files_reader</text>
</g>
<!-- ::app_builder&#45;&gt;::files_reader -->
<g id="edge3" class="edge">
<title>::app_builder&#45;&gt;::files_reader</title>
<path fill="none" stroke="black" d="M611,-364.22C611,-355.82 611,-345.49 611,-335.93"/>
<polygon fill="black" stroke="black" points="614.5,-335.96 611,-325.96 607.5,-335.96 614.5,-335.96"/>
</g>
<!-- ::dependencies_graph -->
<g id="node12" class="node">
<title>::dependencies_graph</title>
<ellipse fill="#e3f38b" stroke="black" cx="526" cy="-162" rx="86.15" ry="18"/>
<text xml:space="preserve" text-anchor="middle" x="526" y="-156.95" font-family="Times,serif" font-size="14.00">dependencies_graph</text>
</g>
<!-- ::files_reader&#45;&gt;::dependencies_graph -->
<g id="edge7" class="edge">
<title>::files_reader&#45;&gt;::dependencies_graph</title>
<path fill="none" stroke="black" d="M600.75,-287.87C586.2,-263.56 559.41,-218.82 542.17,-190.01"/>
<polygon fill="black" stroke="black" points="545.21,-188.27 537.07,-181.49 539.2,-191.87 545.21,-188.27"/>
</g>
<!-- ::files_reader&#45;&gt;::parser -->
<g id="edge8" class="edge">
<title>::files_reader&#45;&gt;::parser</title>
<path fill="none" stroke="black" d="M639.3,-290.33C660.66,-279.25 690.03,-264.02 712.55,-252.34"/>
<polygon fill="black" stroke="black" points="714.07,-255.5 721.33,-247.79 710.85,-249.29 714.07,-255.5"/>
</g>
<!-- ::files_reader&#45;&gt;::filter -->
<g id="edge9" class="edge">
<title>::files_reader&#45;&gt;::filter</title>
<path fill="none" stroke="black" d="M613.72,-287.7C614.88,-280.32 616.26,-271.52 617.56,-263.25"/>
<polygon fill="black" stroke="black" points="620.98,-264.02 619.08,-253.6 614.07,-262.93 620.98,-264.02"/>
</g>
<!-- ::files_reader&#45;&gt;::pathlib::path -->
<g id="edge10" class="edge">
<title>::files_reader&#45;&gt;::pathlib::path</title>
<path fill="none" stroke="black" d="M642.09,-290.93C651.29,-287.08 661.45,-283.11 671,-280 721.84,-263.44 738.63,-272.54 788,-252 790.93,-250.78 855.41,-210.72 897.08,-184.77"/>
<polygon fill="black" stroke="black" points="898.7,-187.88 905.34,-179.63 895,-181.94 898.7,-187.88"/>
</g>
<!-- ::files_reader&#45;&gt;::os::os -->
<g id="edge11" class="edge">
<title>::files_reader&#45;&gt;::os::os</title>
<path fill="none" stroke="black" d="M641.31,-290.63C650.66,-286.68 661.1,-282.73 671,-280 754.98,-256.84 780.9,-274.73 865,-252 866.57,-251.58 868.15,-251.11 869.75,-250.61"/>
<polygon fill="black" stroke="black" points="870.5,-254.06 878.79,-247.45 868.19,-247.45 870.5,-254.06"/>
</g>
<!-- ::files_reader&#45;&gt;::os::path -->
<g id="edge12" class="edge">
<title>::files_reader&#45;&gt;::os::path</title>
<path fill="none" stroke="black" d="M640.62,-290.62C650.12,-286.56 660.82,-282.56 671,-280 793.57,-249.13 830.17,-277.33 954,-252 957.31,-251.32 960.71,-250.52 964.11,-249.64"/>
<polygon fill="black" stroke="black" points="964.73,-253.1 973.41,-247.02 962.84,-246.36 964.73,-253.1"/>
</g>
<!-- ::trie -->
<g id="node11" class="node">
<title>::trie</title>
<ellipse fill="#e3f38b" stroke="black" cx="522" cy="-90" rx="27" ry="18"/>
<text xml:space="preserve" text-anchor="middle" x="522" y="-84.95" font-family="Times,serif" font-size="14.00">trie</text>
</g>
<!-- ::collections -->
<g id="node21" class="node">
<title>::collections</title>
<ellipse fill="none" stroke="black" cx="774" cy="-18" rx="55.96" ry="18"/>
<text xml:space="preserve" text-anchor="middle" x="774" y="-12.95" font-family="Times,serif" font-size="14.00">::collections</text>
</g>
<!-- ::trie&#45;&gt;::collections -->
<g id="edge16" class="edge">
<title>::trie&#45;&gt;::collections</title>
<path fill="none" stroke="black" d="M538.35,-75.47C544.23,-71.21 551.12,-66.87 558,-64 620.99,-37.72 642.38,-50.87 709,-36 713.05,-35.1 717.23,-34.11 721.43,-33.09"/>
<polygon fill="black" stroke="black" points="722.18,-36.52 731.03,-30.7 720.48,-29.72 722.18,-36.52"/>
</g>
<!-- ::dependencies_graph&#45;&gt;::trie -->
<g id="edge17" class="edge">
<title>::dependencies_graph&#45;&gt;::trie</title>
<path fill="none" stroke="black" d="M525.01,-143.7C524.59,-136.41 524.1,-127.73 523.63,-119.54"/>
<polygon fill="black" stroke="black" points="527.13,-119.4 523.06,-109.62 520.14,-119.8 527.13,-119.4"/>
</g>
<!-- ::dependency_path -->
<g id="node16" class="node">
<title>::dependency_path</title>
<ellipse fill="#e3f38b" stroke="black" cx="642" cy="-90" rx="75.41" ry="18"/>
<text xml:space="preserve" text-anchor="middle" x="642" y="-84.95" font-family="Times,serif" font-size="14.00">dependency_path</text>
</g>
<!-- ::dependencies_graph&#45;&gt;::dependency_path -->
<g id="edge18" class="edge">
<title>::dependencies_graph&#45;&gt;::dependency_path</title>
<path fill="none" stroke="black" d="M553.2,-144.59C568.87,-135.13 588.77,-123.12 605.76,-112.87"/>
<polygon fill="black" stroke="black" points="607.32,-116.01 614.08,-107.85 603.71,-110.02 607.32,-116.01"/>
</g>
<!-- ::formatter&#45;&gt;::dependencies_graph -->
<g id="edge19" class="edge">
<title>::formatter&#45;&gt;::dependencies_graph</title>
<path fill="none" stroke="black" d="M86.72,-218.47C94.57,-214.46 103.43,-210.52 112,-208 217.27,-177.05 343.24,-166.98 428.36,-163.91"/>
<polygon fill="black" stroke="black" points="428.44,-167.41 438.32,-163.58 428.21,-160.41 428.44,-167.41"/>
</g>
<!-- ::parser&#45;&gt;::dependency_path -->
<g id="edge20" class="edge">
<title>::parser&#45;&gt;::dependency_path</title>
<path fill="none" stroke="black" d="M734.07,-216.71C716.24,-192.36 682.45,-146.24 661.14,-117.14"/>
<polygon fill="black" stroke="black" points="664.06,-115.2 655.33,-109.2 658.41,-119.34 664.06,-115.2"/>
</g>
<!-- ::parser&#45;&gt;::collections -->
<g id="edge21" class="edge">
<title>::parser&#45;&gt;::collections</title>
<path fill="none" stroke="black" d="M776.44,-226.12C799.38,-220.98 831.63,-213.87 860,-208 891.92,-201.4 983.27,-205.16 1004,-180 1061.78,-109.9 913.51,-56.53 828.6,-32.69"/>
<polygon fill="black" stroke="black" points="829.6,-29.34 819.03,-30.06 827.74,-36.09 829.6,-29.34"/>
</g>
<!-- ::filter&#45;&gt;::dependency_path -->
<g id="edge25" class="edge">
<title>::filter&#45;&gt;::dependency_path</title>
<path fill="none" stroke="black" d="M624.45,-215.59C627.83,-191.61 633.95,-148.14 638,-119.42"/>
<polygon fill="black" stroke="black" points="641.45,-120 639.38,-109.61 634.52,-119.02 641.45,-120"/>
</g>
<!-- ::filter&#45;&gt;::collections -->
<g id="edge26" class="edge">
<title>::filter&#45;&gt;::collections</title>
<path fill="none" stroke="black" d="M636.18,-218C657.25,-195.29 697.39,-150.34 726,-108 739.41,-88.15 752.16,-64.18 761.15,-46.11"/>
<polygon fill="black" stroke="black" points="764.19,-47.86 765.44,-37.34 757.9,-44.79 764.19,-47.86"/>
</g>
<!-- ::hashlib::hasher -->
<g id="node22" class="node">
<title>::hashlib::hasher</title>
<ellipse fill="none" stroke="black" cx="628" cy="-18" rx="71.82" ry="18"/>
<text xml:space="preserve" text-anchor="middle" x="628" y="-12.95" font-family="Times,serif" font-size="14.00">::hashlib::hasher</text>
</g>
<!-- ::dependency_path&#45;&gt;::hashlib::hasher -->
<g id="edge28" class="edge">
<title>::dependency_path&#45;&gt;::hashlib::hasher</title>
<path fill="none" stroke="black" d="M638.54,-71.7C637.06,-64.32 635.3,-55.52 633.65,-47.25"/>
<polygon fill="black" stroke="black" points="637.11,-46.71 631.72,-37.59 630.25,-48.08 637.11,-46.71"/>
</g>
</g>
</svg>
