<?xml version="1.0" encoding="UTF-8" standalone="no"?>
<!DOCTYPE svg PUBLIC "-//W3C//DTD SVG 1.1//EN"
 "http://www.w3.org/Graphics/SVG/1.1/DTD/svg11.dtd">
<!-- Generated by graphviz version 13.0.1 (0)
 -->
<!-- Title: dependencies Pages: 1 -->
<svg width="1076pt" height="497pt"
 viewBox="0.00 0.00 1076.00 497.00" xmlns="http://www.w3.org/2000/svg" xmlns:xlink="http://www.w3.org/1999/xlink">
<g id="graph0" class="graph" transform="scale(1 1) rotate(0) translate(4 492.5)">
<title>dependencies</title>
<polygon fill="white" stroke="none" points="-4,4 -4,-492.5 1072.06,-492.5 1072.06,4 -4,4"/>
<g id="clust1" class="cluster">
<title>cluster_</title>
<polygon fill="#eeeeee" stroke="#eeeeee" points="8,-64 8,-480.5 859,-480.5 859,-64 8,-64"/>
</g>
<g id="clust2" class="cluster">
<title>cluster____formatters</title>
<polygon fill="#dddddd" stroke="#dddddd" points="116,-208 116,-356.5 358,-356.5 358,-208 116,-208"/>
<text xml:space="preserve" text-anchor="middle" x="237" y="-339.2" font-family="Times,serif" font-size="14.00">formatters</text>
</g>
<g id="clust3" class="cluster">
<title>cluster____parsers</title>
<polygon fill="#dddddd" stroke="#dddddd" points="366,-280 366,-356.5 544,-356.5 544,-280 366,-280"/>
<text xml:space="preserve" text-anchor="middle" x="455" y="-339.2" font-family="Times,serif" font-size="14.00">parsers</text>
</g>
<g id="clust4" class="cluster">
<title>cluster____filters</title>
<polygon fill="#dddddd" stroke="#dddddd" points="552,-280 552,-356.5 732,-356.5 732,-280 552,-280"/>
<text xml:space="preserve" text-anchor="middle" x="642" y="-339.2" font-family="Times,serif" font-size="14.00">filters</text>
</g>
<!-- ::formatters::dot_formatter -->
<g id="node1" class="node">
<title>::formatters::dot_formatter</title>
<ellipse fill="#86c2dc" stroke="black" cx="186" cy="-306" rx="62.1" ry="18"/>
<text xml:space="preserve" text-anchor="middle" x="186" y="-300.95" font-family="Times,serif" font-size="14.00">dot_formatter</text>
</g>
<!-- ::formatters::colors -->
<g id="node3" class="node">
<title>::formatters::colors</title>
<ellipse fill="#86c2dc" stroke="black" cx="251" cy="-234" rx="33.44" ry="18"/>
<text xml:space="preserve" text-anchor="middle" x="251" y="-228.95" font-family="Times,serif" font-size="14.00">colors</text>
</g>
<!-- ::formatters::dot_formatter&#45;&gt;::formatters::colors -->
<g id="edge13" class="edge">
<title>::formatters::dot_formatter&#45;&gt;::formatters::colors</title>
<path fill="none" stroke="black" d="M201.4,-288.41C209.65,-279.53 219.95,-268.44 229.02,-258.67"/>
<polygon fill="black" stroke="black" points="231.33,-261.33 235.57,-251.62 226.2,-256.57 231.33,-261.33"/>
</g>
<!-- ::formatter -->
<g id="node14" class="node">
<title>::formatter</title>
<ellipse fill="#e3f38b" stroke="black" cx="62" cy="-234" rx="45.72" ry="18"/>
<text xml:space="preserve" text-anchor="middle" x="62" y="-228.95" font-family="Times,serif" font-size="14.00">formatter</text>
</g>
<!-- ::formatters::dot_formatter&#45;&gt;::formatter -->
<g id="edge14" class="edge">
<title>::formatters::dot_formatter&#45;&gt;::formatter</title>
<path fill="none" stroke="black" d="M158.48,-289.46C140.46,-279.29 116.73,-265.9 97.32,-254.94"/>
<polygon fill="black" stroke="black" points="99.08,-251.91 88.65,-250.04 95.64,-258.01 99.08,-251.91"/>
</g>
<!-- ::formatters::__init__ -->
<g id="node2" class="node">
<title>::formatters::__init__</title>
<ellipse fill="#86c2dc" stroke="black" cx="308" cy="-306" rx="41.63" ry="18"/>
<text xml:space="preserve" text-anchor="middle" x="308" y="-300.95" font-family="Times,serif" font-size="14.00">__init__</text>
</g>
<!-- ::pathlib::path -->
<g id="node18" class="node">
<title>::pathlib::path</title>
<ellipse fill="none" stroke="black" cx="1004" cy="-162" rx="62.61" ry="18"/>
<text xml:space="preserve" text-anchor="middle" x="1004" y="-156.95" font-family="Times,serif" font-size="14.00">::pathlib::path</text>
</g>
<!-- ::formatters::colors&#45;&gt;::pathlib::path -->
<g id="edge15" class="edge">
<title>::formatters::colors&#45;&gt;::pathlib::path</title>
<path fill="none" stroke="black" d="M268.39,-218.4C274.26,-214.28 281.09,-210.3 288,-208 409.38,-167.58 735.53,-190.77 863,-180 887.28,-177.95 913.83,-174.95 937.27,-172.03"/>
<polygon fill="black" stroke="black" points="937.53,-175.53 947.01,-170.81 936.65,-168.59 937.53,-175.53"/>
</g>
<!-- ::parsers::__init__ -->
<g id="node4" class="node">
<title>::parsers::__init__</title>
<ellipse fill="#b797e7" stroke="black" cx="416" cy="-306" rx="41.63" ry="18"/>
<text xml:space="preserve" text-anchor="middle" x="416" y="-300.95" font-family="Times,serif" font-size="14.00">__init__</text>
</g>
<!-- ::parsers::mojo -->
<g id="node5" class="node">
<title>::parsers::mojo</title>
<ellipse fill="#b797e7" stroke="black" cx="506" cy="-306" rx="30.37" ry="18"/>
<text xml:space="preserve" text-anchor="middle" x="506" y="-300.95" font-family="Times,serif" font-size="14.00">mojo</text>
</g>
<!-- ::parser -->
<g id="node15" class="node">
<title>::parser</title>
<ellipse fill="#e3f38b" stroke="black" cx="654" cy="-234" rx="33.44" ry="18"/>
<text xml:space="preserve" text-anchor="middle" x="654" y="-228.95" font-family="Times,serif" font-size="14.00">parser</text>
</g>
<!-- ::parsers::mojo&#45;&gt;::parser -->
<g id="edge23" class="edge">
<title>::parsers::mojo&#45;&gt;::parser</title>
<path fill="none" stroke="black" d="M526.2,-292.23C533.01,-288.12 540.73,-283.68 548,-280 570.37,-268.66 596.27,-257.63 616.87,-249.32"/>
<polygon fill="black" stroke="black" points="618.01,-252.64 626.01,-245.69 615.42,-246.13 618.01,-252.64"/>
</g>
<!-- ::filters::__init__ -->
<g id="node6" class="node">
<title>::filters::__init__</title>
<ellipse fill="#a8acb2" stroke="black" cx="602" cy="-306" rx="41.63" ry="18"/>
<text xml:space="preserve" text-anchor="middle" x="602" y="-300.95" font-family="Times,serif" font-size="14.00">__init__</text>
</g>
<!-- ::filters::depth -->
<g id="node7" class="node">
<title>::filters::depth</title>
<ellipse fill="#a8acb2" stroke="black" cx="693" cy="-306" rx="31.39" ry="18"/>
<text xml:space="preserve" text-anchor="middle" x="693" y="-300.95" font-family="Times,serif" font-size="14.00">depth</text>
</g>
<!-- ::filter -->
<g id="node16" class="node">
<title>::filter</title>
<ellipse fill="#e3f38b" stroke="black" cx="745" cy="-234" rx="28.83" ry="18"/>
<text xml:space="preserve" text-anchor="middle" x="745" y="-228.95" font-family="Times,serif" font-size="14.00">filter</text>
</g>
<!-- ::filters::depth&#45;&gt;::filter -->
<g id="edge26" class="edge">
<title>::filters::depth&#45;&gt;::filter</title>
<path fill="none" stroke="black" d="M704.8,-289.12C711.18,-280.52 719.21,-269.72 726.41,-260.02"/>
<polygon fill="black" stroke="black" points="729.19,-262.15 732.34,-252.04 723.57,-257.98 729.19,-262.15"/>
</g>
<!-- ::main -->
<g id="node8" class="node">
<title>::main</title>
<ellipse fill="#e3f38b" stroke="black" cx="757" cy="-454.5" rx="29.86" ry="18"/>
<text xml:space="preserve" text-anchor="middle" x="757" y="-449.45" font-family="Times,serif" font-size="14.00">main</text>
</g>
<!-- ::app_builder -->
<g id="node9" class="node">
<title>::app_builder</title>
<ellipse fill="#e3f38b" stroke="black" cx="693" cy="-382.5" rx="54.93" ry="18"/>
<text xml:space="preserve" text-anchor="middle" x="693" y="-377.45" font-family="Times,serif" font-size="14.00">app_builder</text>
</g>
<!-- ::main&#45;&gt;::app_builder -->
<g id="edge1" class="edge">
<title>::main&#45;&gt;::app_builder</title>
<path fill="none" stroke="black" d="M743.11,-438.31C735.15,-429.6 724.96,-418.46 715.85,-408.49"/>
<polygon fill="black" stroke="black" points="718.55,-406.26 709.22,-401.24 713.39,-410.99 718.55,-406.26"/>
</g>
<!-- ::sys -->
<g id="node17" class="node">
<title>::sys</title>
<ellipse fill="none" stroke="black" cx="895" cy="-382.5" rx="27.81" ry="18"/>
<text xml:space="preserve" text-anchor="middle" x="895" y="-377.45" font-family="Times,serif" font-size="14.00">::sys</text>
</g>
<!-- ::main&#45;&gt;::sys -->
<g id="edge2" class="edge">
<title>::main&#45;&gt;::sys</title>
<path fill="none" stroke="black" d="M779.41,-442.49C800.93,-431.88 834.29,-415.3 863,-400.5 863.34,-400.33 863.67,-400.15 864.01,-399.98"/>
<polygon fill="black" stroke="black" points="865.46,-403.17 872.7,-395.43 862.21,-396.97 865.46,-403.17"/>
</g>
<!-- ::app_builder&#45;&gt;::formatters::dot_formatter -->
<g id="edge4" class="edge">
<title>::app_builder&#45;&gt;::formatters::dot_formatter</title>
<path fill="none" stroke="black" d="M637.77,-382.06C536.64,-382.46 325.79,-380.3 257,-356.5 240.77,-350.89 224.89,-340.42 212.27,-330.56"/>
<polygon fill="black" stroke="black" points="214.83,-328.13 204.87,-324.51 210.4,-333.55 214.83,-328.13"/>
</g>
<!-- ::app_builder&#45;&gt;::parsers::mojo -->
<g id="edge5" class="edge">
<title>::app_builder&#45;&gt;::parsers::mojo</title>
<path fill="none" stroke="black" d="M638,-380.86C609.54,-378.41 575.17,-372.02 548,-356.5 537.94,-350.75 529.18,-341.64 522.31,-332.79"/>
<polygon fill="black" stroke="black" points="525.17,-330.77 516.5,-324.69 519.49,-334.85 525.17,-330.77"/>
</g>
<!-- ::app_builder&#45;&gt;::filters::depth -->
<g id="edge6" class="edge">
<title>::app_builder&#45;&gt;::filters::depth</title>
<path fill="none" stroke="black" d="M693,-364.22C693,-355.82 693,-345.49 693,-335.93"/>
<polygon fill="black" stroke="black" points="696.5,-335.96 693,-325.96 689.5,-335.96 696.5,-335.96"/>
</g>
<!-- ::files_reader -->
<g id="node10" class="node">
<title>::files_reader</title>
<ellipse fill="#e3f38b" stroke="black" cx="797" cy="-306" rx="54.42" ry="18"/>
<text xml:space="preserve" text-anchor="middle" x="797" y="-300.95" font-family="Times,serif" font-size="14.00">files_reader</text>
</g>
<!-- ::app_builder&#45;&gt;::files_reader -->
<g id="edge3" class="edge">
<title>::app_builder&#45;&gt;::files_reader</title>
<path fill="none" stroke="black" d="M720.23,-366.52C725.56,-363.36 731.03,-359.93 736,-356.5 747.46,-348.59 759.48,-339.12 769.79,-330.58"/>
<polygon fill="black" stroke="black" points="771.79,-333.48 777.2,-324.37 767.29,-328.12 771.79,-333.48"/>
</g>
<!-- ::dependencies_graph -->
<g id="node13" class="node">
<title>::dependencies_graph</title>
<ellipse fill="#e3f38b" stroke="black" cx="523" cy="-162" rx="86.15" ry="18"/>
<text xml:space="preserve" text-anchor="middle" x="523" y="-156.95" font-family="Times,serif" font-size="14.00">dependencies_graph</text>
</g>
<!-- ::files_reader&#45;&gt;::dependencies_graph -->
<g id="edge7" class="edge">
<title>::files_reader&#45;&gt;::dependencies_graph</title>
<path fill="none" stroke="black" d="M765.39,-290.88C756.05,-287.02 745.71,-283.06 736,-280 682.12,-263.01 661.48,-279.27 612,-252 583.75,-236.43 558.49,-209.22 542.16,-188.98"/>
<polygon fill="black" stroke="black" points="544.95,-186.86 536.03,-181.15 539.44,-191.18 544.95,-186.86"/>
</g>
<!-- ::files_reader&#45;&gt;::parser -->
<g id="edge8" class="edge">
<title>::files_reader&#45;&gt;::parser</title>
<path fill="none" stroke="black" d="M767.37,-290.5C744.28,-279.19 712.2,-263.49 688.05,-251.67"/>
<polygon fill="black" stroke="black" points="689.79,-248.62 679.27,-247.37 686.71,-254.91 689.79,-248.62"/>
</g>
<!-- ::files_reader&#45;&gt;::filter -->
<g id="edge9" class="edge">
<title>::files_reader&#45;&gt;::filter</title>
<path fill="none" stroke="black" d="M784.41,-288.05C778.17,-279.65 770.5,-269.32 763.59,-260.02"/>
<polygon fill="black" stroke="black" points="766.43,-257.98 757.66,-252.04 760.82,-262.16 766.43,-257.98"/>
</g>
<!-- ::files_reader&#45;&gt;::pathlib::path -->
<g id="edge10" class="edge">
<title>::files_reader&#45;&gt;::pathlib::path</title>
<path fill="none" stroke="black" d="M850.39,-302C919.46,-296.87 1034.04,-283.72 1060,-252 1072.39,-236.87 1068.45,-225.63 1060,-208 1055.78,-199.19 1048.89,-191.56 1041.37,-185.21"/>
<polygon fill="black" stroke="black" points="1043.65,-182.54 1033.58,-179.26 1039.41,-188.11 1043.65,-182.54"/>
</g>
<!-- ::os::os -->
<g id="node19" class="node">
<title>::os::os</title>
<ellipse fill="none" stroke="black" cx="905" cy="-234" rx="37.53" ry="18"/>
<text xml:space="preserve" text-anchor="middle" x="905" y="-228.95" font-family="Times,serif" font-size="14.00">::os::os</text>
</g>
<!-- ::files_reader&#45;&gt;::os::os -->
<g id="edge11" class="edge">
<title>::files_reader&#45;&gt;::os::os</title>
<path fill="none" stroke="black" d="M820.97,-289.46C836.55,-279.36 857.03,-266.09 873.87,-255.18"/>
<polygon fill="black" stroke="black" points="875.54,-258.26 882.03,-249.89 871.73,-252.39 875.54,-258.26"/>
</g>
<!-- ::os::path -->
<g id="node20" class="node">
<title>::os::path</title>
<ellipse fill="none" stroke="black" cx="1006" cy="-234" rx="45.21" ry="18"/>
<text xml:space="preserve" text-anchor="middle" x="1006" y="-228.95" font-family="Times,serif" font-size="14.00">::os::path</text>
</g>
<!-- ::files_reader&#45;&gt;::os::path -->
<g id="edge12" class="edge">
<title>::files_reader&#45;&gt;::os::path</title>
<path fill="none" stroke="black" d="M834.37,-292.49C869.95,-280.57 923.55,-262.62 961.37,-249.95"/>
<polygon fill="black" stroke="black" points="962.26,-253.34 970.63,-246.84 960.04,-246.7 962.26,-253.34"/>
</g>
<!-- ::trie -->
<g id="node11" class="node">
<title>::trie</title>
<ellipse fill="#e3f38b" stroke="black" cx="517" cy="-90" rx="27" ry="18"/>
<text xml:space="preserve" text-anchor="middle" x="517" y="-84.95" font-family="Times,serif" font-size="14.00">trie</text>
</g>
<!-- ::collections -->
<g id="node21" class="node">
<title>::collections</title>
<ellipse fill="none" stroke="black" cx="731" cy="-18" rx="55.96" ry="18"/>
<text xml:space="preserve" text-anchor="middle" x="731" y="-12.95" font-family="Times,serif" font-size="14.00">::collections</text>
</g>
<!-- ::trie&#45;&gt;::collections -->
<g id="edge16" class="edge">
<title>::trie&#45;&gt;::collections</title>
<path fill="none" stroke="black" d="M533.81,-75.44C539.62,-71.28 546.34,-67.01 553,-64 600.14,-42.67 615.86,-48.77 666,-36 669.79,-35.04 673.7,-34.03 677.63,-33.02"/>
<polygon fill="black" stroke="black" points="678.45,-36.42 687.25,-30.52 676.69,-29.65 678.45,-36.42"/>
</g>
<!-- ::dependencies -->
<g id="node12" class="node">
<title>::dependencies</title>
<ellipse fill="#e3f38b" stroke="black" cx="623" cy="-90" rx="60.56" ry="18"/>
<text xml:space="preserve" text-anchor="middle" x="623" y="-84.95" font-family="Times,serif" font-size="14.00">dependencies</text>
</g>
<!-- ::hashlib::hasher -->
<g id="node22" class="node">
<title>::hashlib::hasher</title>
<ellipse fill="none" stroke="black" cx="585" cy="-18" rx="71.82" ry="18"/>
<text xml:space="preserve" text-anchor="middle" x="585" y="-12.95" font-family="Times,serif" font-size="14.00">::hashlib::hasher</text>
</g>
<!-- ::dependencies&#45;&gt;::hashlib::hasher -->
<g id="edge17" class="edge">
<title>::dependencies&#45;&gt;::hashlib::hasher</title>
<path fill="none" stroke="black" d="M613.8,-72.05C609.62,-64.35 604.56,-55.03 599.85,-46.36"/>
<polygon fill="black" stroke="black" points="602.95,-44.72 595.1,-37.61 596.8,-48.06 602.95,-44.72"/>
</g>
<!-- ::dependencies_graph&#45;&gt;::trie -->
<g id="edge18" class="edge">
<title>::dependencies_graph&#45;&gt;::trie</title>
<path fill="none" stroke="black" d="M521.52,-143.7C520.89,-136.41 520.15,-127.73 519.45,-119.54"/>
<polygon fill="black" stroke="black" points="522.94,-119.28 518.6,-109.61 515.96,-119.87 522.94,-119.28"/>
</g>
<!-- ::dependencies_graph&#45;&gt;::dependencies -->
<g id="edge19" class="edge">
<title>::dependencies_graph&#45;&gt;::dependencies</title>
<path fill="none" stroke="black" d="M546.95,-144.23C560.22,-134.94 576.89,-123.28 591.24,-113.23"/>
<polygon fill="black" stroke="black" points="592.85,-116.38 599.03,-107.78 588.83,-110.64 592.85,-116.38"/>
</g>
<!-- ::formatter&#45;&gt;::dependencies_graph -->
<g id="edge20" class="edge">
<title>::formatter&#45;&gt;::dependencies_graph</title>
<path fill="none" stroke="black" d="M86.72,-218.47C94.57,-214.46 103.43,-210.52 112,-208 216.34,-177.28 341.17,-167.16 425.66,-164.02"/>
<polygon fill="black" stroke="black" points="425.67,-167.52 435.54,-163.68 425.43,-160.52 425.67,-167.52"/>
</g>
<!-- ::parser&#45;&gt;::dependencies -->
<g id="edge21" class="edge">
<title>::parser&#45;&gt;::dependencies</title>
<path fill="none" stroke="black" d="M650.26,-215.87C645.02,-191.88 635.44,-147.99 629.15,-119.16"/>
<polygon fill="black" stroke="black" points="632.63,-118.69 627.08,-109.67 625.79,-120.18 632.63,-118.69"/>
</g>
<!-- ::parser&#45;&gt;::collections -->
<g id="edge22" class="edge">
<title>::parser&#45;&gt;::collections</title>
<path fill="none" stroke="black" d="M660.17,-215.85C673.43,-178.99 704.76,-91.92 720.94,-46.96"/>
<polygon fill="black" stroke="black" points="724.19,-48.25 724.29,-37.66 717.61,-45.88 724.19,-48.25"/>
</g>
<!-- ::filter&#45;&gt;::dependencies -->
<g id="edge24" class="edge">
<title>::filter&#45;&gt;::dependencies</title>
<path fill="none" stroke="black" d="M731.71,-217.53C710.78,-193.17 669.92,-145.61 644.69,-116.25"/>
<polygon fill="black" stroke="black" points="647.56,-114.21 638.39,-108.91 642.25,-118.78 647.56,-114.21"/>
</g>
<!-- ::filter&#45;&gt;::collections -->
<g id="edge25" class="edge">
<title>::filter&#45;&gt;::collections</title>
<path fill="none" stroke="black" d="M743.88,-215.85C741.48,-179.14 735.82,-92.66 732.87,-47.53"/>
<polygon fill="black" stroke="black" points="736.37,-47.49 732.23,-37.74 729.39,-47.95 736.37,-47.49"/>
</g>
</g>
</svg>
